<svg xmlns="http://www.w3.org/2000/svg" width="128" height="128"><path d="M9.219 108.528h7.468V31.622a7.469 7.469 0 1 0-14.937 0V116a7.469 7.469 0 0 1 7.469-7.472z" fill="#e1e6f0"/><path d="M9.219 108.528h7.468V31.622a7.469 7.469 0 1 0-14.937 0V116a7.469 7.469 0 0 1 7.469-7.472z" fill="#e1e6f0"/><path d="M126.25 31.622H16.687v76.906H9.219a7.469 7.469 0 1 0 0 14.938H126.25z" fill="#f3f5f9"/><path fill="#ff7f40" d="M88.92 72.231H31.073l28.924-23.547L88.92 72.231z"/><path fill="#f25a3c" d="m85.263 48.684 28.923 23.547H88.92L59.997 48.684h25.266z"/><path fill="#ffdf40" d="M41.591 72.231h36.812v30.896H41.591z"/><path fill="#ffbe40" d="M103.625 103.127H78.403V72.231h25.222zM53.204 87.679h13.585v15.448H53.204z"/><path d="M35.844 4.534 39.113 7.8a8.873 8.873 0 0 1 0 12.549l-3.27 3.269h64.479V4.534z" fill="#ffdf40"/><path d="M122.27 23.621a13.432 13.432 0 0 0 0-19.086h-11.2v19.086z" fill="#4d5e80"/><path fill="#ff7f40" d="M100.323 4.534h10.743V23.62h-10.743z"/><path d="m27.9 19.744 7.945 3.877 3.269-3.269a8.872 8.872 0 0 0 0-12.549l-3.27-3.269L27.9 8.413z" fill="#ffc080"/><path fill="#4d5e80" d="m16.293 14.078 11.606 5.666V8.413l-11.606 5.665z"/><g><path d="M126.25 29.872H18.266A9.231 9.231 0 0 0 9.219 22.4a1.75 1.75 0 1 0 0 3.5 5.725 5.725 0 0 1 5.718 5.719v75.156H9.219a9.168 9.168 0 0 0-5.719 2V31.622a1.75 1.75 0 0 0-3.5 0V116a9.23 9.23 0 0 0 9.219 9.219H126.25a1.749 1.749 0 0 0 1.75-1.75V31.622a1.749 1.749 0 0 0-1.75-1.75zm-1.75 91.844H9.219a5.719 5.719 0 0 1 0-11.438h7.468a1.749 1.749 0 0 0 1.75-1.75V33.372H124.5z"/><path d="M31.073 73.981h8.768v29.146a1.749 1.749 0 0 0 1.75 1.75h62.034a1.749 1.749 0 0 0 1.75-1.75V73.981h8.811a1.75 1.75 0 0 0 1.1-3.107l-6.672-5.433a1.75 1.75 0 1 0-2.209 2.715l2.856 2.325H89.542L64.918 50.435h20.345a1.75 1.75 0 0 0 0-3.5H60a1.721 1.721 0 0 0-.556.094c-.051.017-.094.05-.143.071a1.75 1.75 0 0 0-.356.2c-.016.011-.034.015-.049.027L29.969 70.874a1.75 1.75 0 0 0 1.1 3.107zm12.268 0h33.311v27.4h-8.113v-13.7a1.749 1.749 0 0 0-1.75-1.75H53.2a1.749 1.749 0 0 0-1.75 1.75v13.7h-8.109zm11.613 27.4V89.429h10.085v11.948zm46.921 0H80.152v-27.4h21.723zM60 50.941l8.692 7.077L84 70.481H36z"/><path d="m92.509 56.84 5.55 4.518a1.75 1.75 0 0 0 2.209-2.714l-5.55-4.519a1.75 1.75 0 1 0-2.209 2.715zM15.525 15.65l11.607 5.665 7.944 3.878a2.076 2.076 0 0 0 .769.178h86.425a1.745 1.745 0 0 0 1.232-.507 15.182 15.182 0 0 0 0-21.573 1.753 1.753 0 0 0-1.232-.507H35.845a2.929 2.929 0 0 0-.768.178l-7.945 3.879-11.607 5.665a1.749 1.749 0 0 0 0 3.144zm14.124-6.144 5.841-2.852 2.386 2.387a7.254 7.254 0 0 1 .894 1.087 7.134 7.134 0 0 1 0 7.9 7.2 7.2 0 0 1-.894 1.087L35.489 21.5l-5.84-2.851zm94.851 4.572a11.589 11.589 0 0 1-2.979 7.793h-8.706V6.284h8.706a11.591 11.591 0 0 1 2.979 7.794zm-15.185 7.793h-7.242V6.284h7.242zm-10.742 0h-58.5l.283-.282a10.717 10.717 0 0 0 1.332-1.621 10.543 10.543 0 0 0 1.78-5.89 10.545 10.545 0 0 0-1.78-5.89 10.766 10.766 0 0 0-1.332-1.621l-.283-.282h58.5zM26.149 11.215v5.726l-5.867-2.863z"/></g></svg>